<?xml version="1.0" encoding="iso-8859-1"?>
<!-- Generator: Adobe Illustrator 16.0.0, SVG Export Plug-In . SVG Version: 6.00 Build 0)  -->
<!DOCTYPE svg PUBLIC "-//W3C//DTD SVG 1.1//EN" "http://www.w3.org/Graphics/SVG/1.1/DTD/svg11.dtd">
<svg version="1.1" id="Capa_1" xmlns="http://www.w3.org/2000/svg" xmlns:xlink="http://www.w3.org/1999/xlink" x="0px" y="0px"
	 width="263.078px" height="263.078px" viewBox="0 0 263.078 263.078" style="enable-background:new 0 0 263.078 263.078;"
	 xml:space="preserve">
<g>
	<g>
		<g id="Layer_5_31_">
			<g>
				<path d="M197.159,155.388c25.837-7.248,38.64-21.06,37.863-39.056c-0.979-22.715-17.518-49.008-55.349-55.52
					c-0.461-0.079-0.394-0.505,0.093-0.646c11.653-3.363,17.482-7.54,17.887-16.862c0.84-19.461-46.867-41.504-86.508-43.214
					c-39.642-1.71-56.371,21.423-57.21,40.886C53.388,53.659,65.478,68.094,84.589,73.93c1.391,0.425,1.144,1.101,0.567,1.336
					c-29.126,11.896-50.894,28.697-50.221,44.309c0.548,12.691,9.896,22.592,26.942,29.532c0.506,0.206,0.658,0.9,0.223,1.051
					c-33.424,11.416-51.061,36.06-51.061,57.955c0,31.656,37.021,54.966,101.5,54.966c87.123,0,139.5-28.619,139.5-60.276
					c0-20.028-18.602-35.473-54.942-45.826C196.147,156.705,196.193,155.659,197.159,155.388z M214.779,93.127
					c-3.868,5.153-18.986-6.336-53.465-8.289c-32.145-1.821-64.265,5.607-65.818,5.74c-4.482,0.38-3.602-1.498-1.63-2.586
					C168.154,47.014,217.708,89.227,214.779,93.127z M68.336,25.82c-2.341-3.121,37.932-37.348,97.939-2.501
					c0.653,0.381,1.403,1.183-1.408,0.843c-1.223-0.147-28.824-7.369-54.431-4.869C83.716,21.9,71.382,29.877,68.336,25.82z
					 M193.843,185.689c-2.068-0.399-39.763-10.753-83.124-7.772c-38.26,2.628-72.422,19.28-78.496,11.5
					c-6.646-8.512,51.572-53.564,155.356-9.576C192.774,182.041,200.847,187.043,193.843,185.689z"/>
			</g>
		</g>
	</g>
</g>
<g>
</g>
<g>
</g>
<g>
</g>
<g>
</g>
<g>
</g>
<g>
</g>
<g>
</g>
<g>
</g>
<g>
</g>
<g>
</g>
<g>
</g>
<g>
</g>
<g>
</g>
<g>
</g>
<g>
</g>
</svg>
