<?xml version="1.0" encoding="iso-8859-1"?>
<!-- Generator: Adobe Illustrator 16.0.0, SVG Export Plug-In . SVG Version: 6.00 Build 0)  -->
<!DOCTYPE svg PUBLIC "-//W3C//DTD SVG 1.1//EN" "http://www.w3.org/Graphics/SVG/1.1/DTD/svg11.dtd">
<svg version="1.1" id="Capa_1" xmlns="http://www.w3.org/2000/svg" xmlns:xlink="http://www.w3.org/1999/xlink" x="0px" y="0px"
	 width="347.262px" height="347.263px" viewBox="0 0 347.262 347.263" style="enable-background:new 0 0 347.262 347.263;"
	 xml:space="preserve">
<g>
	<path d="M295.41,140.664v-18.887C295.41,54.629,240.78,0,173.631,0C106.483,0,51.854,54.629,51.854,121.777v18.887
		c-1.837,0.362-3.222,1.981-3.222,3.924v21.022c0,2.209,1.791,4,4,4h10.328v159.475c0,1.75,1.138,3.297,2.807,3.818
		c10.792,3.368,50.46,14.359,107.865,14.359c57.51,0,97.102-10.99,107.866-14.357c1.669-0.522,2.806-2.068,2.806-3.817V169.611
		h10.328c2.209,0,4-1.791,4-4v-21.022C298.631,142.646,297.247,141.027,295.41,140.664z M111.526,114.917
		c17.502-4.205,39.559-6.52,62.105-6.52c22.548,0,44.604,2.315,62.104,6.52c6.098,1.465,11.537,3.128,16.17,4.946
		c-4.641,1.819-10.079,3.483-16.17,4.946c-17.494,4.204-39.552,6.519-62.104,6.519s-44.609-2.315-62.105-6.519
		c-6.09-1.463-11.53-3.127-16.169-4.946C99.99,118.045,105.43,116.381,111.526,114.917z M173.631,17.297
		c52,0,96.502,38.824,103.516,90.309l0,0c-16.222-13.322-57.82-22.273-103.516-22.273c-45.695,0-87.295,8.951-103.516,22.273
		C77.128,56.121,121.631,17.297,173.631,17.297z"/>
</g>
<g>
</g>
<g>
</g>
<g>
</g>
<g>
</g>
<g>
</g>
<g>
</g>
<g>
</g>
<g>
</g>
<g>
</g>
<g>
</g>
<g>
</g>
<g>
</g>
<g>
</g>
<g>
</g>
<g>
</g>
</svg>
